<svg id="visual" viewBox="0 0 960 540" width="960" height="540" xmlns="http://www.w3.org/2000/svg" xmlns:xlink="http://www.w3.org/1999/xlink" version="1.1"><path d="M0 325L22.8 333.5C45.7 342 91.3 359 137 370.2C182.7 381.3 228.3 386.7 274 379.7C319.7 372.7 365.3 353.3 411.2 349.3C457 345.3 503 356.7 548.8 364.7C594.7 372.7 640.3 377.3 686 371.8C731.7 366.3 777.3 350.7 823 345.5C868.7 340.3 914.3 345.7 937.2 348.3L960 351L960 541L937.2 541C914.3 541 868.7 541 823 541C777.3 541 731.7 541 686 541C640.3 541 594.7 541 548.8 541C503 541 457 541 411.2 541C365.3 541 319.7 541 274 541C228.3 541 182.7 541 137 541C91.3 541 45.7 541 22.8 541L0 541Z" fill="#9bca49"></path><path d="M0 368L22.8 373.2C45.7 378.3 91.3 388.7 137 393C182.7 397.3 228.3 395.7 274 400.3C319.7 405 365.3 416 411.2 419.5C457 423 503 419 548.8 419.8C594.7 420.7 640.3 426.3 686 417.2C731.7 408 777.3 384 823 371.2C868.7 358.3 914.3 356.7 937.2 355.8L960 355L960 541L937.2 541C914.3 541 868.7 541 823 541C777.3 541 731.7 541 686 541C640.3 541 594.7 541 548.8 541C503 541 457 541 411.2 541C365.3 541 319.7 541 274 541C228.3 541 182.7 541 137 541C91.3 541 45.7 541 22.8 541L0 541Z" fill="#a6d15e"></path><path d="M0 448L22.8 449.2C45.7 450.3 91.3 452.7 137 453C182.7 453.3 228.3 451.7 274 444.3C319.7 437 365.3 424 411.2 424.3C457 424.7 503 438.3 548.8 438.7C594.7 439 640.3 426 686 419.8C731.7 413.7 777.3 414.3 823 420.2C868.7 426 914.3 437 937.2 442.5L960 448L960 541L937.2 541C914.3 541 868.7 541 823 541C777.3 541 731.7 541 686 541C640.3 541 594.7 541 548.8 541C503 541 457 541 411.2 541C365.3 541 319.7 541 274 541C228.3 541 182.7 541 137 541C91.3 541 45.7 541 22.8 541L0 541Z" fill="#b1d771"></path><path d="M0 459L22.8 463.3C45.7 467.7 91.3 476.3 137 475.2C182.7 474 228.3 463 274 456.7C319.7 450.3 365.3 448.7 411.2 451.5C457 454.3 503 461.7 548.8 466.2C594.7 470.7 640.3 472.3 686 475C731.7 477.7 777.3 481.3 823 477C868.7 472.7 914.3 460.3 937.2 454.2L960 448L960 541L937.2 541C914.3 541 868.7 541 823 541C777.3 541 731.7 541 686 541C640.3 541 594.7 541 548.8 541C503 541 457 541 411.2 541C365.3 541 319.7 541 274 541C228.3 541 182.7 541 137 541C91.3 541 45.7 541 22.8 541L0 541Z" fill="#bcdd84"></path><path d="M0 498L22.8 496.7C45.7 495.3 91.3 492.7 137 493.2C182.7 493.7 228.3 497.3 274 500C319.7 502.7 365.3 504.3 411.2 501.7C457 499 503 492 548.8 486.3C594.7 480.7 640.3 476.3 686 474.3C731.7 472.3 777.3 472.7 823 473.5C868.7 474.3 914.3 475.7 937.2 476.3L960 477L960 541L937.2 541C914.3 541 868.7 541 823 541C777.3 541 731.7 541 686 541C640.3 541 594.7 541 548.8 541C503 541 457 541 411.2 541C365.3 541 319.7 541 274 541C228.3 541 182.7 541 137 541C91.3 541 45.7 541 22.8 541L0 541Z" fill="#c7e396"></path></svg>