<svg id="visual" viewBox="0 0 540 960" width="540" height="960" xmlns="http://www.w3.org/2000/svg" xmlns:xlink="http://www.w3.org/1999/xlink" version="1.1"><rect x="0" y="0" width="540" height="960" fill="#001220"></rect><defs><linearGradient id="grad1_0" x1="0%" y1="0%" x2="100%" y2="100%"><stop offset="30%" stop-color="#001220" stop-opacity="1"></stop><stop offset="70%" stop-color="#001220" stop-opacity="1"></stop></linearGradient></defs><defs><linearGradient id="grad2_0" x1="0%" y1="0%" x2="100%" y2="100%"><stop offset="30%" stop-color="#001220" stop-opacity="1"></stop><stop offset="70%" stop-color="#001220" stop-opacity="1"></stop></linearGradient></defs><g transform="translate(540, 0)"><path d="M0 486C-57.1 450.9 -114.2 415.9 -158 381.6C-201.9 347.2 -232.5 313.6 -285 285C-337.5 256.3 -411.8 232.6 -449 186C-486.2 139.3 -486.1 69.7 -486 0L0 0Z" fill="#FBAE3C"></path></g><g transform="translate(0, 960)"><path d="M0 -486C43.3 -433.7 86.5 -381.5 151.9 -366.8C217.3 -352.1 304.9 -374.9 343.7 -343.7C382.4 -312.4 372.4 -227 388 -160.7C403.6 -94.4 444.8 -47.2 486 0L0 0Z" fill="#FBAE3C"></path></g></svg>